<svg xmlns="http://www.w3.org/2000/svg" viewBox="0 0 512 512" role="img" aria-label="Apzla">
  <defs>
    <linearGradient id="bg" x1="0" x2="1" y1="1" y2="0">
      <stop offset="0" stop-color="#1f2b45" />
      <stop offset="1" stop-color="#2d3952" />
    </linearGradient>
  </defs>
  <rect width="512" height="512" rx="96" fill="url(#bg)" />
  <path
    fill="#f0f4ff"
    d="M246 118a24 24 0 0 1 20.8 12.6l139 254.7a21.6 21.6 0 0 1-19 31.7H320a24 24 0 0 1-21.6-13.3l-20.7-44.4h-96.5l-20.6 44.2A24 24 0 0 1 140.8 417H88.3a21.6 21.6 0 0 1-19.1-31.8l138.8-254.6A24 24 0 0 1 246 118Zm-9.7 95.8L198.2 304h56.5Z"
  />
</svg>
